HIERARCHY
ROOT hip
{
  OFFSET 0 0 0
  CHANNELS 6 Xposition Yposition Zposition Zrotation Yrotation Xrotation
  JOINT abdomen
  {
    OFFSET 0 20.6881 -0.73152
    CHANNELS 3 Zrotation Xrotation Yrotation
    JOINT chest
    {
      OFFSET 0 11.7043 -0.48768
      CHANNELS 3 Zrotation Xrotation Yrotation
      JOINT neck
      {
        OFFSET 0 22.1894 -2.19456
        CHANNELS 3 Zrotation Xrotation Yrotation
        JOINT head
        {
          OFFSET -0.24384 7.07133 1.2192
          CHANNELS 3 Zrotation Xrotation Yrotation
          JOINT leftEye
          {
            OFFSET 4.14528 8.04674 8.04672
            CHANNELS 3 Zrotation Xrotation Yrotation
            End Site
            {
              OFFSET 1 0 0
            }
          }
          JOINT rightEye
          {
            OFFSET -3.6576 8.04674 8.04672
            CHANNELS 3 Zrotation Xrotation Yrotation
            End Site
            {
              OFFSET 1 0 0
            }
          }
        }
      }
      JOINT rCollar
      {
        OFFSET -2.68224 19.2634 -4.8768
        CHANNELS 3 Zrotation Xrotation Yrotation
        JOINT rShldr
        {
          OFFSET -8.77824 -1.95073 1.46304
          CHANNELS 3 Zrotation Xrotation Yrotation
          JOINT rForeArm
          {
            OFFSET -28.1742 -1.7115 0.48768
            CHANNELS 3 Zrotation Xrotation Yrotation
            JOINT rHand
            {
              OFFSET -22.5879 0.773209 7.07136
              CHANNELS 3 Zrotation Xrotation Yrotation
              JOINT rThumb1
              {
                OFFSET -1.2192 -0.487915 3.41376
                CHANNELS 3 Zrotation Xrotation Yrotation
                JOINT rThumb2
                {
                  OFFSET -3.37035 -0.52449 3.41376
                  CHANNELS 3 Zrotation Xrotation Yrotation
                  End Site
                  {
                    OFFSET -1.78271 -1.18214 1.43049
                  }
                }
              }
              JOINT rIndex1
              {
                OFFSET -7.75947 0.938293 5.60832
                CHANNELS 3 Zrotation Xrotation Yrotation
                JOINT rIndex2
                {
                  OFFSET -2.54057 -0.884171 1.56538
                  CHANNELS 3 Zrotation Xrotation Yrotation
                  End Site
                  {
                    OFFSET -1.62519 -0.234802 1.16502
                  }
                }
              }
              JOINT rMid1
              {
                OFFSET -8.24714 1.18213 3.41376
                CHANNELS 3 Zrotation Xrotation Yrotation
                JOINT rMid2
                {
                  OFFSET -3.10165 -0.590103 1.0647
                  CHANNELS 3 Zrotation Xrotation Yrotation
                  End Site
                  {
                    OFFSET -2.48547 -0.328903 0.83742
                  }
                }
              }
              JOINT rRing1
              {
                OFFSET -8.82822 0.546677 1.51678
                CHANNELS 3 Zrotation Xrotation Yrotation
                JOINT rRing2
                {
                  OFFSET -2.60934 -0.819778 -0.0198488
                  CHANNELS 3 Zrotation Xrotation Yrotation
                  End Site
                  {
                    OFFSET -2.33842 -0.294052 0.168128
                  }
                }
              }
              JOINT rPinky1
              {
                OFFSET -8.27202 -0.0477905 -0.4584
                CHANNELS 3 Zrotation Xrotation Yrotation
                JOINT rPinky2
                {
                  OFFSET -1.82734 -0.647385 -0.700984
                  CHANNELS 3 Zrotation Xrotation Yrotation
                  End Site
                  {
                    OFFSET -1.69225 -0.51767 -0.607171
                  }
                }
              }
            }
          }
        }
      }
      JOINT lCollar
      {
        OFFSET 2.68224 19.2634 -4.8768
        CHANNELS 3 Zrotation Xrotation Yrotation
        JOINT lShldr
        {
          OFFSET 8.77824 -1.95073 1.46304
          CHANNELS 3 Zrotation Xrotation Yrotation
          JOINT lForeArm
          {
            OFFSET 28.1742 -1.7115 0.48768
            CHANNELS 3 Zrotation Xrotation Yrotation
            JOINT lHand
            {
              OFFSET 22.5879 0.773209 7.07136
              CHANNELS 3 Zrotation Xrotation Yrotation
              JOINT lThumb1
              {
                OFFSET 1.2192 -0.487915 3.41376
                CHANNELS 3 Zrotation Xrotation Yrotation
                JOINT lThumb2
                {
                  OFFSET 3.37035 -0.52449 3.41376
                  CHANNELS 3 Zrotation Xrotation Yrotation
                  End Site
                  {
                    OFFSET 1.78271 -1.18214 1.43049
                  }
                }
              }
              JOINT lIndex1
              {
                OFFSET 7.75947 0.938293 5.60832
                CHANNELS 3 Zrotation Xrotation Yrotation
                JOINT lIndex2
                {
                  OFFSET 2.54057 -0.884171 1.56538
                  CHANNELS 3 Zrotation Xrotation Yrotation
                  End Site
                  {
                    OFFSET 1.62519 -0.234802 1.16502
                  }
                }
              }
              JOINT lMid1
              {
                OFFSET 8.24714 1.18213 3.41376
                CHANNELS 3 Zrotation Xrotation Yrotation
                JOINT lMid2
                {
                  OFFSET 3.10165 -0.590103 1.0647
                  CHANNELS 3 Zrotation Xrotation Yrotation
                  End Site
                  {
                    OFFSET 2.48547 -0.328903 0.83742
                  }
                }
              }
              JOINT lRing1
              {
                OFFSET 8.82822 0.546677 1.51678
                CHANNELS 3 Zrotation Xrotation Yrotation
                JOINT lRing2
                {
                  OFFSET 2.60934 -0.819778 -0.0198488
                  CHANNELS 3 Zrotation Xrotation Yrotation
                  End Site
                  {
                    OFFSET 2.33842 -0.294052 0.168128
                  }
                }
              }
              JOINT lPinky1
              {
                OFFSET 8.27202 -0.0477905 -0.4584
                CHANNELS 3 Zrotation Xrotation Yrotation
                JOINT lPinky2
                {
                  OFFSET 1.82734 -0.647385 -0.700984
                  CHANNELS 3 Zrotation Xrotation Yrotation
                  End Site
                  {
                    OFFSET 1.69225 -0.51767 -0.607171
                  }
                }
              }
            }
          }
        }
      }
    }
  }
  JOINT rButtock
  {
    OFFSET -8.77824 4.35084 1.2192
    CHANNELS 3 Zrotation Xrotation Yrotation
    JOINT rThigh
    {
      OFFSET 0 -1.70687 -2.19456
      CHANNELS 3 Zrotation Xrotation Yrotation
      JOINT rShin
      {
        OFFSET 0 -36.8199 0.73152
        CHANNELS 3 Zrotation Xrotation Yrotation
        JOINT rFoot
        {
          OFFSET 0.73152 -45.1104 -5.12064
          CHANNELS 3 Zrotation Xrotation Yrotation
          End Site
          {
            OFFSET -1.1221 -3.69964 12.103
          }
        }
      }
    }
  }
  JOINT lButtock
  {
    OFFSET 8.77824 4.35084 1.2192
    CHANNELS 3 Zrotation Xrotation Yrotation
    JOINT lThigh
    {
      OFFSET 0 -1.70687 -2.19456
      CHANNELS 3 Zrotation Xrotation Yrotation
      JOINT lShin
      {
        OFFSET 0 -36.8199 0.73152
        CHANNELS 3 Zrotation Xrotation Yrotation
        JOINT lFoot
        {
          OFFSET -0.73152 -45.1104 -5.12064
          CHANNELS 3 Zrotation Xrotation Yrotation
          End Site
          {
            OFFSET 1.1221 -3.69964 12.103
          }
        }
      }
    }
  }
}
MOTION
Frames:	8
Frame Time:	0.03333
0.0 0.0 0.0 0.0 0.0 0.0 0.0 0.0 0.0 0.0 0.0 0.0 0.0 0.0 0.0 0.0 0.0 0.0 0.0 0.0 0.0 0.0 0.0 0.0 0.0 0.0 0.0 0.0 0.0 0.0 0.0 0.0 0.0 0.0 0.0 0.0 0.0 0.0 0.0 0.0 0.0 0.0 0.0 0.0 0.0 0.0 0.0 0.0 0.0 0.0 0.0 0.0 0.0 0.0 0.0 0.0 0.0 0.0 0.0 0.0 0.0 0.0 0.0 0.0 0.0 0.0 0.0 0.0 0.0 0.0 0.0 0.0 0.0 0.0 0.0 0.0 0.0 0.0 0.0 0.0 0.0 0.0 0.0 0.0 0.0 0.0 0.0 0.0 0.0 0.0 0.0 0.0 0.0 0.0 0.0 0.0 0.0 0.0 0.0 0.0 0.0 0.0 0.0 0.0 0.0 0.0 0.0 0.0 0.0 0.0 0.0 0.0 0.0 0.0 0.0 0.0 0.0 0.0 0.0 0.0 0.0 0.0 0.0 0.0 0.0 0.0 0.0 0.0 0.0 0.0 0.0 0.0
0.0029 60.79409999999999 -0.098 -0.844088 19.298325 -1.374112 0.347927 4.524855 -0.012997 0.101747 6.672015 3.657359 7.126251 -9.144687 107.824934 -44.225325 -4.194257 -79.938079 -147.361415 -10.842039 -35.917158 -32.949832 9.548664 -31.541148 -74.178284 -1.433954 167.826104 -58.891782 86.023535 77.094284 -11.773486 49.098957 -157.68122 165.402495 -27.625798 94.460881 -156.809687 -21.614479 62.609373 154.931591 38.459025 -148.029277 -111.422775 19.176516 -74.421243 -14.671895 -0.926022 -141.441461 144.497834 -36.133456 -167.311514 83.064637 -66.651545 153.281455 161.124553 28.785866 -78.477062 122.85457 -36.401367 170.412177 164.520537 39.370227 -91.718718 4.595265 -65.590027 8.094861 -62.11583 21.801488 -6.26304 -16.183479 15.630662 -14.73362 161.660132 -81.981773 3.418538 -41.002337 -61.146167 63.675535 0.614694 -13.17133 -75.343202 10.999041 18.423428 13.802454 153.9337 -14.911413 -67.957045 -18.530748 5.699304 15.437274 145.8867 32.394722 -79.416295 80.963787 71.464715 26.446797 112.634564 2.067811 -8.158622 -16.742915 -35.477906 127.683532 170.453226 -11.209665 103.416026 163.269156 -37.083417 171.281804 25.814927 -39.223963 37.415418 0.03955 42.931885 -180.0 -5.811483 -0.345581 -131.466756 -65.634828 61.382864 81.476471 40.335995 7.693151 88.068122 -8.645557 37.931381 180.0 5.036672 -0.867013 82.932534 -0.243345 73.210403 0.784341
1.1214 58.778600000000004 -1.0555 6.4806 0.109659 7.852488 -1.615087 11.371052 0.252524 1.551655 -7.414687 2.624471 -7.943345 10.572199 -16.899975 10.215423 -25.15988 13.731098 10.939493 2.050627 21.173095 3.753532 -0.382136 -11.622093 -130.503281 -88.203347 -147.606069 73.665181 54.948297 -63.762381 -5.788359 26.590054 85.864572 1.423112 8.767556 -6.719866 84.310701 -58.735377 37.405186 -77.941897 25.755568 41.448246 -104.208149 54.012182 75.329189 31.188787 -37.086721 29.920715 -19.250886 -5.358723 1.246083 -159.85534 -54.043457 143.141755 56.666145 -88.632009 38.947453 -6.126367 -36.903931 -1.418031 -18.1154 -43.841442 -28.33558 -58.098963 77.280088 82.068432 -2.74877 13.989898 -1.586523 122.992885 -17.952584 -148.698343 -54.277156 -47.065592 94.902423 171.877066 26.712613 -136.77852 5.169358 -1.51821 9.779894 135.518208 -31.867072 -97.180456 14.30851 24.773681 5.702913 -110.200503 -48.783576 -65.801815 146.600553 -69.181586 -163.926207 55.120379 38.486733 -74.16886 127.649235 -35.619649 154.645431 24.232259 -68.056396 67.017597 77.569098 -52.891448 83.427671 -28.049867 -9.999876 26.384204 -16.917727 -2.149889 -28.518552 20.828878 -36.376658 13.055204 19.561149 62.295437 55.837154 -14.698367 -6.023548 -86.629347 3.647421 -3.062674 -4.499292 14.619819 -39.106967 9.570875 -24.419427 66.699479 108.214965 -105.983089 34.769687 15.331375
2.7656 61.9263 -1.0161 18.381245 0.407488 6.05163 -1.810545 12.836337 -55.522486 2.010022 -5.066369 58.4921 -4.773322 3.856673 18.500482 -10.684931 -14.371661 -4.398072 26.663097 8.912562 36.409486 -0.881443 0.256136 -32.405825 -144.090211 44.916184 143.204161 -53.433635 34.108045 47.041648 87.382067 -28.80824 -116.906106 -179.868227 71.264643 145.784304 178.248627 -33.932537 107.869091 -2.647245 -15.187803 -31.955132 -157.163837 43.60107 118.732672 -0.598175 -21.84981 7.750114 -12.9146 -74.760379 -22.788023 -61.317158 56.798626 79.775759 16.16016 -44.055913 15.788038 176.066239 -32.842187 -156.870451 92.065422 65.008916 -56.00597 -139.191513 -49.044229 -106.508333 142.037248 27.574246 -151.683173 14.933681 -48.32967 -24.018769 171.905448 -28.100476 92.97435 -2.423843 -27.428456 1.120909 68.078722 62.692444 -42.836006 50.136162 -47.726781 22.433988 59.362661 66.461236 -51.835626 11.198652 -69.367386 21.279265 152.004593 -69.263509 -161.142563 157.816864 -54.984686 -111.504571 102.121151 -41.290278 108.755917 118.998414 6.91816 173.89948 28.398784 45.139785 -13.336551 -39.573038 -50.777656 -7.622229 -49.830159 63.311152 -114.718247 118.004205 41.491347 50.241774 31.267978 57.405979 4.545358 171.542445 -46.066998 54.386288 -52.98086 36.875628 -61.21655 97.528158 13.368458 133.555487 69.753449 7.049733 -48.781476 -1.458553 4.768916 -25.128059
5.3664000000000005 66.5234 -0.45690000000000003 26.353342 -3.100989 0.774468 -9.283422 22.200767 -60.834979 6.829373 -2.516513 66.842498 -17.48168 11.755382 -73.499359 14.304601 -2.923054 104.484257 37.829189 14.614453 41.033855 27.472746 -19.34158 -69.76225 -140.394512 49.140564 131.968278 -175.407498 10.607088 133.76939 135.405251 2.591683 -14.984124 -170.813455 77.699231 136.447677 -161.995489 -0.622146 110.309761 -57.813229 49.938389 0.600322 18.917444 -15.485885 15.146949 87.338485 80.86098 -142.717473 -175.778244 37.913409 164.378235 -14.358694 3.082674 -34.748483 -13.468207 19.767359 28.434419 -85.219054 -66.230509 -95.876107 -39.379328 17.371002 -10.021014 -62.607522 -60.90778 -78.500668 -6.248186 1.916554 7.53141 135.922883 -35.147856 -158.570738 172.289136 60.820417 122.677098 0.188134 -35.966576 -0.365477 137.247176 -16.576056 -120.133951 -25.634699 -7.208124 30.406805 149.588538 13.990528 -119.067519 13.831375 -13.81435 -14.579367 -89.914481 -83.16037 -70.622248 134.430699 19.500056 -143.185681 -37.523622 48.974802 15.091084 124.241151 -37.993109 67.327188 -160.167908 1.874735 138.478481 79.281458 -33.423764 8.898117 -158.454992 79.474685 -21.879159 142.560408 35.966048 119.435723 64.219549 -14.297458 -16.291922 -165.399165 -52.303281 106.40724 -88.503903 55.122612 -53.451824 152.074038 25.12142 -128.692454 -74.770294 -48.220695 -175.023189 3.605441 0.628644 -90.363182
9.2294 73.96770000000001 0.607 34.878127 -6.147152 -3.277246 -24.471531 26.426778 10.496986 6.235176 -6.742806 7.968974 -3.47711 4.640946 62.852131 -9.030167 9.851129 -33.65071 -14.491755 -1.624993 12.729077 14.606186 -5.771959 -42.945632 -6.312823 -36.110979 -7.499358 95.090756 85.708259 -52.362424 170.136281 40.816791 46.890965 165.961391 -0.167463 141.241389 -0.585559 15.728633 -13.4992 37.476184 -44.649143 24.518221 9.675364 3.093057 21.853304 37.729585 73.815226 -87.308869 3.502785 79.010141 -5.518542 163.56868 13.331281 167.291778 -170.703323 27.541892 175.233364 11.891284 25.953246 -20.357051 -27.056047 21.232234 4.961173 -119.40203 -34.473602 -71.211639 -2.905617 19.933979 2.839755 -46.70727 15.593957 -22.772152 -35.742862 -53.506583 -80.119197 7.506954 -11.611168 4.806753 -162.086693 -51.000938 -69.122901 -6.787575 -31.641123 -40.964984 89.030787 25.186457 -53.960133 -168.041791 -43.010843 -49.260009 3.731555 3.25334 6.939115 -3.780381 44.160991 -25.032599 114.077688 11.181217 167.016872 57.766555 88.784181 -145.300033 -7.284249 45.360158 15.151739 88.209401 27.666064 -110.850974 -1.80158 3.058377 -0.926589 -39.834012 -24.018068 -19.575203 3.680038 59.157046 142.874521 91.432976 48.833052 166.346137 -172.972797 59.522497 0.0 -144.375582 12.403041 -54.286459 -51.61451 42.794294 -165.716446 106.83824 60.934367 -175.993827
13.339300000000001 80.22019999999999 2.1165 42.962297 -10.466448 -5.2654 -33.103248 22.646155 -75.729945 1.948401 8.219615 90.362765 -6.581795 19.062425 95.610913 -23.846659 6.072695 -51.110801 -51.812368 9.851857 -20.124181 143.436881 -8.638055 25.754351 -111.482274 55.902744 106.254079 121.199736 -55.414522 129.218686 70.928686 31.813605 69.190482 -87.78749 71.631098 76.580133 -160.953687 -11.611809 111.493888 -136.20735 13.807105 96.055607 -80.078223 36.023949 71.501698 -2.864325 56.59585 4.780034 -102.49132 -64.197563 -159.423423 29.452019 21.164633 26.399228 -163.054922 8.555563 -158.452298 -117.567944 -14.57452 -132.857925 -124.068979 -31.059628 -117.983396 -157.742903 -51.265457 84.057249 -5.384384 2.605433 18.984121 -54.450954 -63.445802 9.287833 -171.206125 -38.641455 -83.109448 174.534944 5.697139 -137.014017 0.176797 -0.796368 -20.23778 102.937612 57.060127 -98.209982 156.078215 18.717863 -87.427287 21.932872 -21.341863 -22.454947 88.30233 65.743226 -85.048136 75.660615 30.761855 -48.83536 46.801425 -71.06248 91.674971 37.675902 45.17478 -52.065053 -29.946459 27.028046 -12.200108 38.721285 -23.099698 -52.093193 0.760062 -12.136545 3.610599 -49.285962 -10.16781 80.200005 41.328033 0.707698 -82.44249 -6.541068 -19.271713 -6.182879 15.167409 19.673154 -24.291212 62.5108 -15.400921 -124.277575 29.301035 -35.568972 82.198899 145.987625 30.990514 -121.001112
15.9648 82.794 3.9079999999999995 43.057876 -5.967543 -5.510203 -34.089012 28.350056 -125.055459 -4.622867 12.554196 131.852127 -17.968518 22.921283 66.884582 -20.898706 -26.754648 -18.521374 -51.690831 15.15394 -30.710752 105.194119 0.101694 -0.132996 -145.982145 27.024807 130.492374 -32.996125 11.084046 14.896157 -45.939731 36.656458 -99.903712 155.771029 -69.033619 143.670369 -83.939688 51.301577 49.067118 -90.11346 -3.614395 47.742804 -148.315701 -36.559828 122.192595 -161.101243 -42.419959 114.800876 -132.167289 -44.20512 170.665355 15.504728 47.927198 1.876678 -1.116021 61.277985 3.163038 -71.313798 49.991517 34.026418 -125.057403 -7.064048 -142.193377 -149.219088 -48.231295 39.774333 25.319826 -53.533274 51.97348 -68.405333 35.328119 58.613097 25.395979 -17.691303 -54.341301 1.428587 -23.337181 12.620532 -83.958766 -32.200047 -34.080287 132.598847 46.592114 -77.519728 -68.112146 -59.354656 -55.911391 84.02787 -77.281919 127.496497 156.374691 -8.276149 -142.120816 35.084461 54.209602 7.232879 124.029122 -3.272046 170.975541 36.269661 87.309162 -66.251659 110.075579 45.38747 165.640849 -45.999476 23.629758 94.609371 -111.004774 68.014285 -60.901936 102.802367 27.687519 -0.0 -49.280058 29.933518 -81.19538 -175.046183 13.701027 -123.649826 -9.910587 22.825193 -65.423245 114.137279 46.310392 57.289017 -43.79992 47.04201 -23.645515 83.997917 24.941891 -31.523332
